<mxfile host="app.diagrams.net" modified="2024-01-25T14:34:56.621Z" agent="Mozilla/5.0 (Windows NT 10.0; Win64; x64) AppleWebKit/537.36 (KHTML, like Gecko) Chrome/120.0.0.0 Safari/537.36" etag="UQknuTFYrf75xxIC63pL" version="22.1.21" type="github">
  <diagram name="Page-1" id="HDLZt7XarpedacUDO0oT">
    <mxGraphModel dx="3133" dy="135" grid="1" gridSize="10" guides="1" tooltips="1" connect="1" arrows="1" fold="1" page="1" pageScale="1" pageWidth="850" pageHeight="1100" math="0" shadow="0">
      <root>
        <mxCell id="0" />
        <mxCell id="1" parent="0" />
        <mxCell id="nLgQ-aw-alhX12hGxTin-36" value="&lt;font style=&quot;font-size: 19px;&quot;&gt;&lt;b&gt;Virtual Acute Care&lt;/b&gt;&lt;/font&gt;" style="rounded=0;whiteSpace=wrap;html=1;verticalAlign=top;" parent="1" vertex="1">
          <mxGeometry x="-950" y="1610" width="1060" height="760" as="geometry" />
        </mxCell>
        <mxCell id="nLgQ-aw-alhX12hGxTin-5" value="Client layer" style="rounded=0;whiteSpace=wrap;html=1;dashed=1;dashPattern=12 12;labelPosition=center;verticalLabelPosition=middle;align=center;verticalAlign=top;rotation=-90;fontSize=17;fontStyle=1" parent="1" vertex="1">
          <mxGeometry x="-500.14" y="1240" width="172.8" height="1002.5" as="geometry" />
        </mxCell>
        <mxCell id="nLgQ-aw-alhX12hGxTin-7" value="Server layer" style="rounded=0;whiteSpace=wrap;html=1;dashed=1;dashPattern=12 12;labelPosition=center;verticalLabelPosition=middle;align=center;verticalAlign=top;rotation=-90;fontSize=17;fontStyle=1" parent="1" vertex="1">
          <mxGeometry x="-514.06" y="1485.32" width="201.25" height="1003.12" as="geometry" />
        </mxCell>
        <mxCell id="nLgQ-aw-alhX12hGxTin-10" value="" style="group" parent="1" vertex="1" connectable="0">
          <mxGeometry x="-495" y="1701.2500000000002" width="195" height="80" as="geometry" />
        </mxCell>
        <mxCell id="nLgQ-aw-alhX12hGxTin-1" value="&lt;b&gt;&lt;font style=&quot;font-size: 13px;&quot;&gt;Tasy Client App&lt;/font&gt;&lt;br&gt;&lt;/b&gt;" style="rounded=0;whiteSpace=wrap;html=1;fillColor=#cce5ff;strokeColor=#006eff;labelPosition=center;verticalLabelPosition=middle;align=center;verticalAlign=top;" parent="nLgQ-aw-alhX12hGxTin-10" vertex="1">
          <mxGeometry width="195" height="80" as="geometry" />
        </mxCell>
        <mxCell id="nLgQ-aw-alhX12hGxTin-8" value="Display user interfaces to interact with Server App" style="text;html=1;strokeColor=none;fillColor=none;align=center;verticalAlign=middle;whiteSpace=wrap;rounded=0;" parent="nLgQ-aw-alhX12hGxTin-10" vertex="1">
          <mxGeometry x="27.5" y="30.63000000000011" width="140" height="30" as="geometry" />
        </mxCell>
        <mxCell id="nLgQ-aw-alhX12hGxTin-11" value="" style="group;fillColor=#d5e8d4;strokeColor=#82b366;" parent="1" vertex="1" connectable="0">
          <mxGeometry x="-850" y="1940" width="195" height="80" as="geometry" />
        </mxCell>
        <mxCell id="nLgQ-aw-alhX12hGxTin-12" value="&lt;b&gt;&lt;font style=&quot;font-size: 13px;&quot;&gt;Tasy Server App&lt;/font&gt;&lt;br&gt;&lt;/b&gt;" style="rounded=0;whiteSpace=wrap;html=1;fillColor=#d5e8d4;strokeColor=#82b366;labelPosition=center;verticalLabelPosition=middle;align=center;verticalAlign=top;" parent="nLgQ-aw-alhX12hGxTin-11" vertex="1">
          <mxGeometry width="195" height="80" as="geometry" />
        </mxCell>
        <mxCell id="nLgQ-aw-alhX12hGxTin-13" value="Work with business rules and receive requests from Client app" style="text;html=1;strokeColor=none;fillColor=none;align=center;verticalAlign=middle;whiteSpace=wrap;rounded=0;" parent="nLgQ-aw-alhX12hGxTin-11" vertex="1">
          <mxGeometry x="27.5" y="30.63000000000011" width="140" height="30" as="geometry" />
        </mxCell>
        <mxCell id="nLgQ-aw-alhX12hGxTin-14" value="" style="group;fillColor=#d5e8d4;strokeColor=#82b366;" parent="1" vertex="1" connectable="0">
          <mxGeometry x="-150" y="1940" width="195" height="80" as="geometry" />
        </mxCell>
        <mxCell id="nLgQ-aw-alhX12hGxTin-15" value="&lt;b&gt;&lt;font style=&quot;font-size: 13px;&quot;&gt;Chassis Microservices&lt;/font&gt;&lt;br&gt;&lt;/b&gt;" style="rounded=0;whiteSpace=wrap;html=1;fillColor=#d5e8d4;strokeColor=#82b366;labelPosition=center;verticalLabelPosition=middle;align=center;verticalAlign=top;" parent="nLgQ-aw-alhX12hGxTin-14" vertex="1">
          <mxGeometry width="195" height="80" as="geometry" />
        </mxCell>
        <mxCell id="nLgQ-aw-alhX12hGxTin-16" value="Work with business rules and receive requests from Client app" style="text;html=1;strokeColor=none;fillColor=none;align=center;verticalAlign=middle;whiteSpace=wrap;rounded=0;" parent="nLgQ-aw-alhX12hGxTin-14" vertex="1">
          <mxGeometry x="27.5" y="30.63000000000011" width="140" height="30" as="geometry" />
        </mxCell>
        <mxCell id="nLgQ-aw-alhX12hGxTin-18" value="" style="group;fillColor=#d5e8d4;strokeColor=#82b366;" parent="1" vertex="1" connectable="0">
          <mxGeometry x="-400" y="1940" width="195" height="80" as="geometry" />
        </mxCell>
        <mxCell id="nLgQ-aw-alhX12hGxTin-19" value="&lt;b&gt;&lt;span style=&quot;font-size: 13px;&quot;&gt;Philips Solutions&lt;/span&gt;&lt;br&gt;&lt;/b&gt;" style="rounded=0;whiteSpace=wrap;html=1;fillColor=#d5e8d4;strokeColor=#82b366;labelPosition=center;verticalLabelPosition=middle;align=center;verticalAlign=top;" parent="nLgQ-aw-alhX12hGxTin-18" vertex="1">
          <mxGeometry width="195" height="80" as="geometry" />
        </mxCell>
        <mxCell id="nLgQ-aw-alhX12hGxTin-20" value="Composed by Launchpad, Spinal, TIE and CDSB" style="text;html=1;strokeColor=none;fillColor=none;align=center;verticalAlign=middle;whiteSpace=wrap;rounded=0;" parent="nLgQ-aw-alhX12hGxTin-18" vertex="1">
          <mxGeometry x="27.5" y="30.63" width="142.5" height="30" as="geometry" />
        </mxCell>
        <mxCell id="nLgQ-aw-alhX12hGxTin-21" value="" style="group;fillColor=#d5e8d4;strokeColor=#82b366;" parent="1" vertex="1" connectable="0">
          <mxGeometry x="-620" y="1940" width="195" height="80" as="geometry" />
        </mxCell>
        <mxCell id="nLgQ-aw-alhX12hGxTin-22" value="&lt;b&gt;&lt;span style=&quot;font-size: 13px;&quot;&gt;Tasy Function Microservice&lt;/span&gt;&lt;br&gt;&lt;/b&gt;" style="rounded=0;whiteSpace=wrap;html=1;fillColor=#d5e8d4;strokeColor=#82b366;labelPosition=center;verticalLabelPosition=middle;align=center;verticalAlign=top;" parent="nLgQ-aw-alhX12hGxTin-21" vertex="1">
          <mxGeometry width="195" height="80" as="geometry" />
        </mxCell>
        <mxCell id="nLgQ-aw-alhX12hGxTin-23" value="Delivery metadata to SchematicsDX" style="text;html=1;strokeColor=none;fillColor=none;align=center;verticalAlign=middle;whiteSpace=wrap;rounded=0;" parent="nLgQ-aw-alhX12hGxTin-21" vertex="1">
          <mxGeometry x="27.5" y="30.63" width="142.5" height="30" as="geometry" />
        </mxCell>
        <mxCell id="nLgQ-aw-alhX12hGxTin-25" value="Database layer" style="rounded=0;whiteSpace=wrap;html=1;dashed=1;dashPattern=12 12;labelPosition=center;verticalLabelPosition=middle;align=center;verticalAlign=top;rotation=-90;fontSize=17;fontStyle=1" parent="1" vertex="1">
          <mxGeometry x="-514.3699999999999" y="1740" width="201.25" height="1003.12" as="geometry" />
        </mxCell>
        <mxCell id="nLgQ-aw-alhX12hGxTin-26" value="" style="group;fillColor=#f8cecc;strokeColor=#b85450;" parent="1" vertex="1" connectable="0">
          <mxGeometry x="-495" y="2201.56" width="195" height="80" as="geometry" />
        </mxCell>
        <mxCell id="nLgQ-aw-alhX12hGxTin-27" value="&lt;b&gt;&lt;span style=&quot;font-size: 13px;&quot;&gt;Oracle Database&lt;/span&gt;&lt;br&gt;&lt;/b&gt;" style="rounded=0;whiteSpace=wrap;html=1;fillColor=#f8cecc;strokeColor=#b85450;labelPosition=center;verticalLabelPosition=middle;align=center;verticalAlign=top;" parent="nLgQ-aw-alhX12hGxTin-26" vertex="1">
          <mxGeometry width="195" height="80" as="geometry" />
        </mxCell>
        <mxCell id="nLgQ-aw-alhX12hGxTin-28" value="A lightweight version of Tasy Oracle Database" style="text;html=1;strokeColor=none;fillColor=none;align=center;verticalAlign=middle;whiteSpace=wrap;rounded=0;" parent="nLgQ-aw-alhX12hGxTin-26" vertex="1">
          <mxGeometry x="27.5" y="30.63" width="142.5" height="30" as="geometry" />
        </mxCell>
        <mxCell id="nLgQ-aw-alhX12hGxTin-29" style="edgeStyle=orthogonalEdgeStyle;rounded=0;orthogonalLoop=1;jettySize=auto;html=1;entryX=0.5;entryY=0;entryDx=0;entryDy=0;" parent="1" source="nLgQ-aw-alhX12hGxTin-8" target="nLgQ-aw-alhX12hGxTin-19" edge="1">
          <mxGeometry relative="1" as="geometry" />
        </mxCell>
        <mxCell id="nLgQ-aw-alhX12hGxTin-30" style="edgeStyle=orthogonalEdgeStyle;rounded=0;orthogonalLoop=1;jettySize=auto;html=1;exitX=0.5;exitY=1;exitDx=0;exitDy=0;entryX=0.75;entryY=1;entryDx=0;entryDy=0;" parent="1" source="nLgQ-aw-alhX12hGxTin-19" target="nLgQ-aw-alhX12hGxTin-12" edge="1">
          <mxGeometry relative="1" as="geometry" />
        </mxCell>
        <mxCell id="nLgQ-aw-alhX12hGxTin-31" style="edgeStyle=orthogonalEdgeStyle;rounded=0;orthogonalLoop=1;jettySize=auto;html=1;entryX=0.5;entryY=1;entryDx=0;entryDy=0;exitX=0.5;exitY=1;exitDx=0;exitDy=0;" parent="1" source="nLgQ-aw-alhX12hGxTin-19" target="nLgQ-aw-alhX12hGxTin-22" edge="1">
          <mxGeometry relative="1" as="geometry" />
        </mxCell>
        <mxCell id="nLgQ-aw-alhX12hGxTin-32" style="edgeStyle=orthogonalEdgeStyle;rounded=0;orthogonalLoop=1;jettySize=auto;html=1;entryX=0.25;entryY=1;entryDx=0;entryDy=0;exitX=0.5;exitY=1;exitDx=0;exitDy=0;" parent="1" source="nLgQ-aw-alhX12hGxTin-19" target="nLgQ-aw-alhX12hGxTin-15" edge="1">
          <mxGeometry relative="1" as="geometry" />
        </mxCell>
        <mxCell id="nLgQ-aw-alhX12hGxTin-33" style="edgeStyle=orthogonalEdgeStyle;rounded=0;orthogonalLoop=1;jettySize=auto;html=1;entryX=0.5;entryY=0;entryDx=0;entryDy=0;exitX=0.25;exitY=1;exitDx=0;exitDy=0;" parent="1" source="nLgQ-aw-alhX12hGxTin-12" target="nLgQ-aw-alhX12hGxTin-27" edge="1">
          <mxGeometry relative="1" as="geometry" />
        </mxCell>
        <mxCell id="nLgQ-aw-alhX12hGxTin-35" style="edgeStyle=orthogonalEdgeStyle;rounded=0;orthogonalLoop=1;jettySize=auto;html=1;exitX=0.75;exitY=1;exitDx=0;exitDy=0;entryX=0.5;entryY=0;entryDx=0;entryDy=0;" parent="1" source="nLgQ-aw-alhX12hGxTin-15" target="nLgQ-aw-alhX12hGxTin-27" edge="1">
          <mxGeometry relative="1" as="geometry" />
        </mxCell>
      </root>
    </mxGraphModel>
  </diagram>
</mxfile>
